<svg xmlns="http://www.w3.org/2000/svg" xmlns:xlink="http://www.w3.org/1999/xlink" width="500" zoomAndPan="magnify" viewBox="0 0 375 374.999991" height="500" preserveAspectRatio="xMidYMid meet" version="1.0"><defs><g/><clipPath id="da99b77059"><rect x="0" width="259" y="0" height="12"/></clipPath></defs><rect x="-37.5" width="450" fill="#ffffff" y="-37.499999" height="449.999989" fill-opacity="1"/><rect x="-37.5" width="450" fill="#ffffff" y="-37.499999" height="449.999989" fill-opacity="1"/><g fill="#1800ad" fill-opacity="1"><g transform="translate(50, 192.447314)"><g><path d="M 41.359375 -19.203125 L 41.359375 0 L 30.546875 0 L 30.546875 -19.203125 C 30.546875 -22.492188 29.769531 -24.863281 28.21875 -26.3125 C 26.675781 -27.757812 24.6875 -28.484375 22.25 -28.484375 C 20.925781 -28.484375 19.679688 -28.0625 18.515625 -27.21875 C 17.347656 -26.382812 16.40625 -25.269531 15.6875 -23.875 C 14.976562 -22.476562 14.625 -20.921875 14.625 -19.203125 L 14.625 0 L 3.8125 0 L 3.8125 -38.46875 L 14.625 -38.46875 L 14.625 -35.796875 C 15.488281 -36.867188 16.859375 -37.722656 18.734375 -38.359375 C 20.617188 -38.992188 22.398438 -39.3125 24.078125 -39.3125 C 26.921875 -39.3125 29.519531 -38.738281 31.875 -37.59375 C 34.238281 -36.445312 35.976562 -34.988281 37.09375 -33.21875 C 38.3125 -34.84375 39.734375 -36.097656 41.359375 -36.984375 C 42.984375 -37.867188 44.632812 -38.476562 46.3125 -38.8125 C 47.988281 -39.144531 49.488281 -39.3125 50.8125 -39.3125 C 54.769531 -39.3125 58.039062 -38.40625 60.625 -36.59375 C 63.21875 -34.789062 65.148438 -32.363281 66.421875 -29.3125 C 67.691406 -26.269531 68.328125 -22.898438 68.328125 -19.203125 L 68.328125 0 L 57.59375 0 L 57.59375 -19.203125 C 57.59375 -22.140625 56.816406 -24.421875 55.265625 -26.046875 C 53.710938 -27.671875 51.847656 -28.484375 49.671875 -28.484375 C 47.328125 -28.484375 45.351562 -27.566406 43.75 -25.734375 C 42.15625 -23.910156 41.359375 -21.734375 41.359375 -19.203125 Z M 41.359375 -19.203125 "/></g></g></g><g fill="#1800ad" fill-opacity="1"><g transform="translate(121.590469, 192.447314)"><g><path d="M 31.390625 -13.78125 L 39.984375 -7.15625 C 38.359375 -4.71875 36 -2.773438 32.90625 -1.328125 C 29.8125 0.117188 26.535156 0.84375 23.078125 0.84375 C 20.179688 0.84375 17.476562 0.320312 14.96875 -0.71875 C 12.457031 -1.757812 10.234375 -3.207031 8.296875 -5.0625 C 6.367188 -6.914062 4.867188 -9.046875 3.796875 -11.453125 C 2.734375 -13.867188 2.203125 -16.453125 2.203125 -19.203125 C 2.203125 -22.898438 3.101562 -26.269531 4.90625 -29.3125 C 6.71875 -32.363281 9.132812 -34.789062 12.15625 -36.59375 C 15.175781 -38.40625 18.515625 -39.3125 22.171875 -39.3125 C 25.367188 -39.3125 28.257812 -38.675781 30.84375 -37.40625 C 33.4375 -36.132812 35.644531 -34.46875 37.46875 -32.40625 C 39.300781 -30.351562 40.597656 -28.132812 41.359375 -25.75 L 19.875 -10.359375 C 20.382812 -10.160156 20.90625 -10.035156 21.4375 -9.984375 C 21.976562 -9.929688 22.523438 -9.90625 23.078125 -9.90625 C 24.703125 -9.90625 26.273438 -10.207031 27.796875 -10.8125 C 29.328125 -11.425781 30.523438 -12.414062 31.390625 -13.78125 Z M 13.171875 -19.203125 C 13.171875 -18.179688 13.273438 -17.34375 13.484375 -16.6875 L 27.5 -26.65625 C 26.738281 -27.21875 25.910156 -27.660156 25.015625 -27.984375 C 24.128906 -28.316406 23.179688 -28.484375 22.171875 -28.484375 C 19.679688 -28.484375 17.554688 -27.609375 15.796875 -25.859375 C 14.046875 -24.109375 13.171875 -21.890625 13.171875 -19.203125 Z M 13.171875 -19.203125 "/></g></g></g><g fill="#1800ad" fill-opacity="1"><g transform="translate(165.154026, 192.447314)"><g><path d="M 26.359375 -28.484375 L 17.21875 -28.484375 L 17.21875 -16.21875 C 17.21875 -14.039062 18.078125 -12.441406 19.796875 -11.421875 C 21.523438 -10.410156 23.632812 -9.90625 26.125 -9.90625 L 26.125 0.84375 C 22.320312 0.84375 18.929688 0.144531 15.953125 -1.25 C 12.984375 -2.65625 10.648438 -4.625 8.953125 -7.15625 C 7.253906 -9.695312 6.40625 -12.617188 6.40625 -15.921875 L 6.40625 -28.484375 L 0.609375 -28.484375 L 0.609375 -38.46875 L 6.40625 -38.46875 L 6.40625 -43.5 L 17.21875 -51.34375 L 17.21875 -38.46875 L 26.359375 -38.46875 Z M 26.359375 -28.484375 "/></g></g></g><g fill="#0097b2" fill-opacity="1"><g transform="translate(192.652339, 192.447314)"><g><path d="M 25.828125 -39.15625 L 25.828125 -27.953125 C 24.804688 -28.304688 23.660156 -28.484375 22.390625 -28.484375 C 20.304688 -28.484375 18.488281 -27.707031 16.9375 -26.15625 C 15.394531 -24.613281 14.625 -22.296875 14.625 -19.203125 L 14.625 0 L 3.8125 0 L 3.8125 -38.46875 L 14.625 -38.46875 L 14.625 -35.796875 C 15.789062 -37.066406 17.132812 -37.96875 18.65625 -38.5 C 20.1875 -39.039062 21.6875 -39.3125 23.15625 -39.3125 C 23.613281 -39.3125 24.046875 -39.3125 24.453125 -39.3125 C 24.859375 -39.3125 25.316406 -39.257812 25.828125 -39.15625 Z M 25.828125 -39.15625 "/></g></g></g><g fill="#0097b2" fill-opacity="1"><g transform="translate(219.460683, 192.447314)"><g><path d="M 22.171875 -39.3125 C 24.910156 -39.3125 27.507812 -38.789062 29.96875 -37.75 C 32.4375 -36.707031 34.597656 -35.257812 36.453125 -33.40625 C 38.304688 -31.550781 39.765625 -29.414062 40.828125 -27 C 41.890625 -24.59375 42.421875 -21.992188 42.421875 -19.203125 C 42.421875 -16.453125 41.890625 -13.867188 40.828125 -11.453125 C 39.765625 -9.046875 38.304688 -6.914062 36.453125 -5.0625 C 34.597656 -3.207031 32.4375 -1.757812 29.96875 -0.71875 C 27.507812 0.320312 24.910156 0.84375 22.171875 0.84375 C 19.421875 0.84375 16.835938 0.320312 14.421875 -0.71875 C 12.015625 -1.757812 9.894531 -3.207031 8.0625 -5.0625 C 6.238281 -6.914062 4.804688 -9.046875 3.765625 -11.453125 C 2.722656 -13.867188 2.203125 -16.453125 2.203125 -19.203125 C 2.203125 -22.898438 3.101562 -26.269531 4.90625 -29.3125 C 6.71875 -32.363281 9.132812 -34.789062 12.15625 -36.59375 C 15.175781 -38.40625 18.515625 -39.3125 22.171875 -39.3125 Z M 22.171875 -9.90625 C 24.804688 -9.90625 27 -10.765625 28.75 -12.484375 C 30.507812 -14.210938 31.390625 -16.453125 31.390625 -19.203125 C 31.390625 -21.890625 30.507812 -24.109375 28.75 -25.859375 C 27 -27.609375 24.804688 -28.484375 22.171875 -28.484375 C 19.679688 -28.484375 17.554688 -27.609375 15.796875 -25.859375 C 14.046875 -24.109375 13.171875 -21.890625 13.171875 -19.203125 C 13.171875 -16.453125 14.046875 -14.210938 15.796875 -12.484375 C 17.554688 -10.765625 19.679688 -9.90625 22.171875 -9.90625 Z M 22.171875 -9.90625 "/></g></g></g><g fill="#0097b2" fill-opacity="1"><g transform="translate(264.090486, 192.447314)"><g><path d="M 9.140625 -45.25 C 7.460938 -45.25 6 -45.859375 4.75 -47.078125 C 3.507812 -48.296875 2.890625 -49.742188 2.890625 -51.421875 C 2.890625 -52.941406 3.507812 -54.3125 4.75 -55.53125 C 6 -56.75 7.460938 -57.359375 9.140625 -57.359375 C 10.972656 -57.359375 12.507812 -56.757812 13.75 -55.5625 C 14.988281 -54.375 15.609375 -52.992188 15.609375 -51.421875 C 15.609375 -49.742188 14.988281 -48.296875 13.75 -47.078125 C 12.507812 -45.859375 10.972656 -45.25 9.140625 -45.25 Z M 14.625 -38.46875 L 14.625 0 L 3.8125 0 L 3.8125 -38.46875 Z M 14.625 -38.46875 "/></g></g></g><g fill="#0097b2" fill-opacity="1"><g transform="translate(282.521218, 192.447314)"><g><path d="M 19.8125 -11.34375 L 12.5 0 L -0.15625 0 L 13.78125 -20.484375 L 2.515625 -38.46875 L 13.71875 -38.46875 L 19.8125 -28.40625 L 25.828125 -38.46875 L 37.09375 -38.46875 L 25.75 -20.484375 L 39.765625 0 L 27.125 0 Z M 19.8125 -11.34375 "/></g></g></g><g transform="matrix(1, 0, 0, 1, 62, 201)"><g clip-path="url(#da99b77059)"><g fill="#1800ad" fill-opacity="1"><g transform="translate(0.983542, 7.783736)"><g><path d="M 0.28125 0 L 0.734375 -5.03125 L 2.0625 -5.03125 L 2.90625 -1.59375 L 3.734375 -5.03125 L 5.078125 -5.03125 L 5.546875 0 L 4.59375 0 L 4.265625 -3.359375 L 3.453125 0 L 2.375 0 L 1.53125 -3.359375 L 1.234375 0 Z M 0.28125 0 "/></g></g></g><g fill="#1800ad" fill-opacity="1"><g transform="translate(9.458971, 7.783736)"><g><path d="M 0.40625 -0.984375 L 0.40625 -3.984375 C 0.40625 -4.148438 0.425781 -4.296875 0.46875 -4.421875 C 0.507812 -4.554688 0.566406 -4.660156 0.640625 -4.734375 C 0.710938 -4.804688 0.796875 -4.863281 0.890625 -4.90625 C 0.992188 -4.957031 1.09375 -4.988281 1.1875 -5 C 1.28125 -5.019531 1.378906 -5.03125 1.484375 -5.03125 C 2.671875 -5 3.410156 -4.960938 3.703125 -4.921875 L 3.703125 -4.125 L 1.71875 -4.125 C 1.632812 -4.125 1.566406 -4.113281 1.515625 -4.09375 C 1.460938 -4.070312 1.425781 -4.039062 1.40625 -4 C 1.382812 -3.957031 1.367188 -3.921875 1.359375 -3.890625 C 1.359375 -3.859375 1.359375 -3.804688 1.359375 -3.734375 L 1.359375 -2.953125 L 3.390625 -2.890625 L 3.390625 -2.09375 L 1.359375 -2.03125 L 1.359375 -1.25 C 1.359375 -1.15625 1.367188 -1.082031 1.390625 -1.03125 C 1.421875 -0.976562 1.457031 -0.941406 1.5 -0.921875 C 1.550781 -0.898438 1.59375 -0.890625 1.625 -0.890625 C 1.664062 -0.890625 1.71875 -0.890625 1.78125 -0.890625 L 3.703125 -0.890625 L 3.703125 -0.09375 C 3.585938 -0.0820312 3.351562 -0.0664062 3 -0.046875 C 2.644531 -0.0234375 2.3125 -0.0078125 2 0 L 1.5625 0.015625 C 1.457031 0.0234375 1.359375 0.0234375 1.265625 0.015625 C 1.171875 0.00390625 1.066406 -0.0195312 0.953125 -0.0625 C 0.847656 -0.101562 0.753906 -0.15625 0.671875 -0.21875 C 0.597656 -0.289062 0.535156 -0.390625 0.484375 -0.515625 C 0.429688 -0.648438 0.40625 -0.804688 0.40625 -0.984375 Z M 0.40625 -0.984375 "/></g></g></g><g fill="#1800ad" fill-opacity="1"><g transform="translate(16.009719, 7.783736)"><g><path d="M 0.234375 0 L 1.9375 -5.03125 L 3.03125 -5.03125 L 4.65625 0 L 3.640625 0 L 3.28125 -1.109375 L 1.625 -1.109375 L 1.265625 0 Z M 1.890625 -1.96875 L 3.046875 -1.96875 L 2.484375 -3.765625 Z M 1.890625 -1.96875 "/></g></g></g><g fill="#1800ad" fill-opacity="1"><g transform="translate(23.419701, 7.783736)"><g><path d="M 0.34375 -3.34375 L 0.34375 -3.78125 C 0.34375 -3.96875 0.363281 -4.132812 0.40625 -4.28125 C 0.457031 -4.4375 0.519531 -4.5625 0.59375 -4.65625 C 0.675781 -4.757812 0.773438 -4.835938 0.890625 -4.890625 C 1.003906 -4.953125 1.125 -4.992188 1.25 -5.015625 C 1.382812 -5.046875 1.535156 -5.066406 1.703125 -5.078125 C 2.054688 -5.085938 2.414062 -5.070312 2.78125 -5.03125 C 3.15625 -4.988281 3.445312 -4.9375 3.65625 -4.875 L 3.65625 -4.125 C 3.125 -4.164062 2.5625 -4.1875 1.96875 -4.1875 C 1.726562 -4.1875 1.554688 -4.15625 1.453125 -4.09375 C 1.359375 -4.039062 1.3125 -3.910156 1.3125 -3.703125 L 1.3125 -3.453125 C 1.3125 -3.253906 1.347656 -3.125 1.421875 -3.0625 C 1.503906 -3 1.644531 -2.96875 1.84375 -2.96875 L 2.640625 -2.96875 C 2.753906 -2.96875 2.863281 -2.957031 2.96875 -2.9375 C 3.070312 -2.914062 3.160156 -2.882812 3.234375 -2.84375 C 3.316406 -2.800781 3.390625 -2.75 3.453125 -2.6875 C 3.515625 -2.632812 3.566406 -2.570312 3.609375 -2.5 C 3.648438 -2.4375 3.6875 -2.367188 3.71875 -2.296875 C 3.75 -2.222656 3.769531 -2.144531 3.78125 -2.0625 C 3.800781 -1.988281 3.8125 -1.914062 3.8125 -1.84375 C 3.820312 -1.78125 3.828125 -1.710938 3.828125 -1.640625 L 3.828125 -1.296875 C 3.828125 -1.078125 3.800781 -0.882812 3.75 -0.71875 C 3.695312 -0.550781 3.625 -0.421875 3.53125 -0.328125 C 3.445312 -0.234375 3.34375 -0.15625 3.21875 -0.09375 C 3.09375 -0.03125 2.96875 0.0078125 2.84375 0.03125 C 2.71875 0.0507812 2.582031 0.0625 2.4375 0.0625 C 1.613281 0.0625 0.96875 -0.0078125 0.5 -0.15625 L 0.5 -0.90625 C 1 -0.851562 1.582031 -0.828125 2.25 -0.828125 C 2.332031 -0.828125 2.40625 -0.832031 2.46875 -0.84375 C 2.53125 -0.851562 2.59375 -0.867188 2.65625 -0.890625 C 2.726562 -0.921875 2.78125 -0.96875 2.8125 -1.03125 C 2.84375 -1.09375 2.859375 -1.171875 2.859375 -1.265625 L 2.859375 -1.53125 C 2.859375 -1.695312 2.828125 -1.816406 2.765625 -1.890625 C 2.703125 -1.960938 2.582031 -2 2.40625 -2 L 1.640625 -2 C 0.773438 -2.007812 0.34375 -2.457031 0.34375 -3.34375 Z M 0.34375 -3.34375 "/></g></g></g><g fill="#1800ad" fill-opacity="1"><g transform="translate(30.128547, 7.783736)"><g><path d="M 0.421875 -2.203125 L 0.421875 -5.03125 L 1.375 -5.03125 L 1.375 -2.203125 C 1.375 -1.910156 1.390625 -1.675781 1.421875 -1.5 C 1.460938 -1.332031 1.519531 -1.195312 1.59375 -1.09375 C 1.675781 -1 1.773438 -0.9375 1.890625 -0.90625 C 2.003906 -0.875 2.160156 -0.859375 2.359375 -0.859375 C 2.523438 -0.859375 2.660156 -0.875 2.765625 -0.90625 C 2.878906 -0.945312 2.976562 -1.015625 3.0625 -1.109375 C 3.144531 -1.210938 3.203125 -1.347656 3.234375 -1.515625 C 3.273438 -1.691406 3.296875 -1.921875 3.296875 -2.203125 L 3.296875 -5.03125 L 4.265625 -5.03125 L 4.265625 -2.203125 C 4.265625 -1.953125 4.25 -1.726562 4.21875 -1.53125 C 4.195312 -1.332031 4.164062 -1.160156 4.125 -1.015625 C 4.082031 -0.867188 4.023438 -0.738281 3.953125 -0.625 C 3.878906 -0.507812 3.804688 -0.414062 3.734375 -0.34375 C 3.671875 -0.28125 3.585938 -0.222656 3.484375 -0.171875 C 3.378906 -0.117188 3.289062 -0.078125 3.21875 -0.046875 C 3.144531 -0.0234375 3.046875 -0.0078125 2.921875 0 C 2.804688 0.0195312 2.710938 0.03125 2.640625 0.03125 C 2.566406 0.03125 2.472656 0.03125 2.359375 0.03125 C 2.347656 0.03125 2.328125 0.03125 2.296875 0.03125 C 2.117188 0.03125 1.984375 0.0234375 1.890625 0.015625 C 1.804688 0.015625 1.6875 0.00390625 1.53125 -0.015625 C 1.375 -0.046875 1.25 -0.0859375 1.15625 -0.140625 C 1.070312 -0.191406 0.972656 -0.269531 0.859375 -0.375 C 0.753906 -0.488281 0.675781 -0.625 0.625 -0.78125 C 0.570312 -0.9375 0.523438 -1.132812 0.484375 -1.375 C 0.441406 -1.613281 0.421875 -1.890625 0.421875 -2.203125 Z M 0.421875 -2.203125 "/></g></g></g><g fill="#1800ad" fill-opacity="1"><g transform="translate(37.346062, 7.783736)"><g><path d="M 0.34375 0 L 0.34375 -5.03125 L 2.546875 -5.03125 C 2.753906 -5.03125 2.9375 -5.003906 3.09375 -4.953125 C 3.257812 -4.898438 3.40625 -4.816406 3.53125 -4.703125 C 3.65625 -4.585938 3.75 -4.421875 3.8125 -4.203125 C 3.882812 -3.992188 3.921875 -3.75 3.921875 -3.46875 C 3.921875 -3.226562 3.898438 -3.019531 3.859375 -2.84375 C 3.816406 -2.664062 3.769531 -2.53125 3.71875 -2.4375 C 3.675781 -2.34375 3.609375 -2.257812 3.515625 -2.1875 C 3.429688 -2.113281 3.363281 -2.066406 3.3125 -2.046875 C 3.269531 -2.023438 3.207031 -2.003906 3.125 -1.984375 L 4.078125 0 L 2.984375 0 L 2.15625 -1.90625 L 1.3125 -2 L 1.3125 0 Z M 1.3125 -2.75 L 2.46875 -2.75 C 2.550781 -2.75 2.617188 -2.757812 2.671875 -2.78125 C 2.734375 -2.800781 2.785156 -2.832031 2.828125 -2.875 C 2.867188 -2.925781 2.898438 -3 2.921875 -3.09375 C 2.941406 -3.1875 2.953125 -3.3125 2.953125 -3.46875 C 2.953125 -3.738281 2.910156 -3.925781 2.828125 -4.03125 C 2.742188 -4.132812 2.625 -4.1875 2.46875 -4.1875 L 1.3125 -4.1875 Z M 1.3125 -2.75 "/></g></g></g><g fill="#1800ad" fill-opacity="1"><g transform="translate(44.171769, 7.783736)"><g><path d="M 0.421875 0 L 0.421875 -5.03125 L 1.375 -5.03125 L 1.375 0 Z M 0.421875 0 "/></g></g></g><g fill="#1800ad" fill-opacity="1"><g transform="translate(48.509138, 7.783736)"><g><path d="M 0.421875 0 L 0.421875 -5.03125 L 1.390625 -5.03125 L 3.390625 -1.78125 L 3.390625 -5.03125 L 4.359375 -5.03125 L 4.359375 0 L 3.390625 0 L 1.390625 -3.21875 L 1.390625 0 Z M 0.421875 0 "/></g></g></g><g fill="#1800ad" fill-opacity="1"><g transform="translate(55.822886, 7.783736)"><g><path d="M 0.28125 -2.546875 C 0.28125 -2.859375 0.289062 -3.132812 0.3125 -3.375 C 0.34375 -3.613281 0.394531 -3.84375 0.46875 -4.0625 C 0.539062 -4.289062 0.632812 -4.472656 0.75 -4.609375 C 0.875 -4.753906 1.035156 -4.867188 1.234375 -4.953125 C 1.429688 -5.046875 1.664062 -5.09375 1.9375 -5.09375 C 2.320312 -5.09375 2.648438 -5.078125 2.921875 -5.046875 C 3.191406 -5.015625 3.503906 -4.957031 3.859375 -4.875 L 3.859375 -4.125 C 3.859375 -4.125 3.820312 -4.125 3.75 -4.125 C 3.675781 -4.132812 3.582031 -4.144531 3.46875 -4.15625 C 3.351562 -4.175781 3.222656 -4.191406 3.078125 -4.203125 C 2.941406 -4.210938 2.789062 -4.21875 2.625 -4.21875 C 2.457031 -4.226562 2.300781 -4.234375 2.15625 -4.234375 C 2.03125 -4.234375 1.921875 -4.21875 1.828125 -4.1875 C 1.734375 -4.164062 1.648438 -4.125 1.578125 -4.0625 C 1.515625 -4.007812 1.460938 -3.9375 1.421875 -3.84375 C 1.378906 -3.757812 1.34375 -3.648438 1.3125 -3.515625 C 1.289062 -3.390625 1.273438 -3.25 1.265625 -3.09375 C 1.253906 -2.9375 1.25 -2.75 1.25 -2.53125 C 1.25 -1.863281 1.300781 -1.414062 1.40625 -1.1875 C 1.519531 -0.96875 1.753906 -0.859375 2.109375 -0.859375 C 2.191406 -0.859375 2.28125 -0.867188 2.375 -0.890625 C 2.46875 -0.910156 2.546875 -0.9375 2.609375 -0.96875 C 2.679688 -1 2.742188 -1.03125 2.796875 -1.0625 C 2.859375 -1.09375 2.90625 -1.117188 2.9375 -1.140625 C 2.96875 -1.171875 2.984375 -1.1875 2.984375 -1.1875 L 2.984375 -2.078125 L 2.28125 -2.078125 L 2.28125 -2.6875 C 2.550781 -2.800781 2.945312 -2.859375 3.46875 -2.859375 C 3.613281 -2.859375 3.769531 -2.851562 3.9375 -2.84375 L 3.9375 0 L 3.25 0 L 2.984375 -0.34375 C 2.941406 -0.289062 2.894531 -0.25 2.84375 -0.21875 C 2.800781 -0.1875 2.75 -0.15625 2.6875 -0.125 C 2.625 -0.09375 2.554688 -0.0664062 2.484375 -0.046875 C 2.410156 -0.0234375 2.328125 -0.0078125 2.234375 0 C 2.140625 0.0195312 2.035156 0.03125 1.921875 0.03125 C 1.648438 0.0390625 1.410156 0.00390625 1.203125 -0.078125 C 1.003906 -0.171875 0.847656 -0.289062 0.734375 -0.4375 C 0.617188 -0.582031 0.523438 -0.769531 0.453125 -1 C 0.378906 -1.238281 0.332031 -1.472656 0.3125 -1.703125 C 0.289062 -1.941406 0.28125 -2.222656 0.28125 -2.546875 Z M 0.28125 -2.546875 "/></g></g></g><g fill="#1800ad" fill-opacity="1"><g transform="translate(62.696709, 7.783736)"><g/></g></g><g fill="#1800ad" fill-opacity="1"><g transform="translate(67.583985, 7.783736)"><g><path d="M 0.34375 -2.484375 C 0.34375 -2.816406 0.359375 -3.109375 0.390625 -3.359375 C 0.429688 -3.617188 0.476562 -3.835938 0.53125 -4.015625 C 0.59375 -4.203125 0.671875 -4.359375 0.765625 -4.484375 C 0.867188 -4.617188 0.96875 -4.722656 1.0625 -4.796875 C 1.164062 -4.867188 1.289062 -4.925781 1.4375 -4.96875 C 1.59375 -5.007812 1.738281 -5.035156 1.875 -5.046875 C 2.007812 -5.054688 2.171875 -5.0625 2.359375 -5.0625 C 2.523438 -5.0625 2.664062 -5.054688 2.78125 -5.046875 C 2.90625 -5.046875 3.035156 -5.03125 3.171875 -5 C 3.304688 -4.96875 3.421875 -4.921875 3.515625 -4.859375 C 3.617188 -4.804688 3.71875 -4.738281 3.8125 -4.65625 C 3.90625 -4.570312 3.984375 -4.460938 4.046875 -4.328125 C 4.117188 -4.203125 4.179688 -4.050781 4.234375 -3.875 C 4.285156 -3.707031 4.320312 -3.503906 4.34375 -3.265625 C 4.375 -3.035156 4.390625 -2.773438 4.390625 -2.484375 C 4.390625 -2.171875 4.367188 -1.890625 4.328125 -1.640625 C 4.296875 -1.398438 4.253906 -1.191406 4.203125 -1.015625 C 4.148438 -0.835938 4.070312 -0.6875 3.96875 -0.5625 C 3.875 -0.4375 3.773438 -0.335938 3.671875 -0.265625 C 3.566406 -0.191406 3.441406 -0.128906 3.296875 -0.078125 C 3.148438 -0.0351562 3.003906 -0.0078125 2.859375 0 C 2.710938 0.0195312 2.546875 0.03125 2.359375 0.03125 C 2.191406 0.03125 2.039062 0.0234375 1.90625 0.015625 C 1.78125 0.00390625 1.648438 -0.0078125 1.515625 -0.03125 C 1.378906 -0.0625 1.265625 -0.101562 1.171875 -0.15625 C 1.078125 -0.207031 0.984375 -0.273438 0.890625 -0.359375 C 0.796875 -0.453125 0.71875 -0.5625 0.65625 -0.6875 C 0.59375 -0.8125 0.535156 -0.957031 0.484375 -1.125 C 0.429688 -1.289062 0.394531 -1.488281 0.375 -1.71875 C 0.351562 -1.945312 0.34375 -2.203125 0.34375 -2.484375 Z M 1.3125 -2.484375 C 1.3125 -2.203125 1.316406 -1.96875 1.328125 -1.78125 C 1.347656 -1.601562 1.378906 -1.445312 1.421875 -1.3125 C 1.460938 -1.1875 1.523438 -1.09375 1.609375 -1.03125 C 1.703125 -0.96875 1.804688 -0.921875 1.921875 -0.890625 C 2.035156 -0.867188 2.179688 -0.859375 2.359375 -0.859375 C 2.578125 -0.859375 2.75 -0.878906 2.875 -0.921875 C 3 -0.960938 3.101562 -1.039062 3.1875 -1.15625 C 3.28125 -1.28125 3.34375 -1.445312 3.375 -1.65625 C 3.40625 -1.863281 3.421875 -2.140625 3.421875 -2.484375 C 3.421875 -2.679688 3.414062 -2.851562 3.40625 -3 C 3.394531 -3.15625 3.378906 -3.289062 3.359375 -3.40625 C 3.335938 -3.519531 3.3125 -3.617188 3.28125 -3.703125 C 3.257812 -3.785156 3.222656 -3.859375 3.171875 -3.921875 C 3.128906 -3.984375 3.082031 -4.03125 3.03125 -4.0625 C 2.988281 -4.09375 2.925781 -4.117188 2.84375 -4.140625 C 2.769531 -4.160156 2.695312 -4.171875 2.625 -4.171875 C 2.550781 -4.179688 2.460938 -4.1875 2.359375 -4.1875 C 2.234375 -4.1875 2.132812 -4.179688 2.0625 -4.171875 C 1.988281 -4.160156 1.910156 -4.144531 1.828125 -4.125 C 1.742188 -4.101562 1.675781 -4.066406 1.625 -4.015625 C 1.582031 -3.972656 1.535156 -3.910156 1.484375 -3.828125 C 1.441406 -3.742188 1.40625 -3.640625 1.375 -3.515625 C 1.351562 -3.390625 1.335938 -3.242188 1.328125 -3.078125 C 1.316406 -2.910156 1.3125 -2.710938 1.3125 -2.484375 Z M 2.0625 0.234375 L 2.609375 0.234375 C 2.773438 0.515625 3.144531 0.578125 3.71875 0.421875 L 3.71875 1.203125 C 3.582031 1.222656 3.441406 1.234375 3.296875 1.234375 C 3.148438 1.242188 3.003906 1.222656 2.859375 1.171875 C 2.710938 1.128906 2.582031 1.066406 2.46875 0.984375 C 2.351562 0.910156 2.257812 0.804688 2.1875 0.671875 C 2.113281 0.546875 2.070312 0.398438 2.0625 0.234375 Z M 2.0625 0.234375 "/></g></g></g><g fill="#1800ad" fill-opacity="1"><g transform="translate(74.849618, 7.783736)"><g><path d="M 0.421875 -2.203125 L 0.421875 -5.03125 L 1.375 -5.03125 L 1.375 -2.203125 C 1.375 -1.910156 1.390625 -1.675781 1.421875 -1.5 C 1.460938 -1.332031 1.519531 -1.195312 1.59375 -1.09375 C 1.675781 -1 1.773438 -0.9375 1.890625 -0.90625 C 2.003906 -0.875 2.160156 -0.859375 2.359375 -0.859375 C 2.523438 -0.859375 2.660156 -0.875 2.765625 -0.90625 C 2.878906 -0.945312 2.976562 -1.015625 3.0625 -1.109375 C 3.144531 -1.210938 3.203125 -1.347656 3.234375 -1.515625 C 3.273438 -1.691406 3.296875 -1.921875 3.296875 -2.203125 L 3.296875 -5.03125 L 4.265625 -5.03125 L 4.265625 -2.203125 C 4.265625 -1.953125 4.25 -1.726562 4.21875 -1.53125 C 4.195312 -1.332031 4.164062 -1.160156 4.125 -1.015625 C 4.082031 -0.867188 4.023438 -0.738281 3.953125 -0.625 C 3.878906 -0.507812 3.804688 -0.414062 3.734375 -0.34375 C 3.671875 -0.28125 3.585938 -0.222656 3.484375 -0.171875 C 3.378906 -0.117188 3.289062 -0.078125 3.21875 -0.046875 C 3.144531 -0.0234375 3.046875 -0.0078125 2.921875 0 C 2.804688 0.0195312 2.710938 0.03125 2.640625 0.03125 C 2.566406 0.03125 2.472656 0.03125 2.359375 0.03125 C 2.347656 0.03125 2.328125 0.03125 2.296875 0.03125 C 2.117188 0.03125 1.984375 0.0234375 1.890625 0.015625 C 1.804688 0.015625 1.6875 0.00390625 1.53125 -0.015625 C 1.375 -0.046875 1.25 -0.0859375 1.15625 -0.140625 C 1.070312 -0.191406 0.972656 -0.269531 0.859375 -0.375 C 0.753906 -0.488281 0.675781 -0.625 0.625 -0.78125 C 0.570312 -0.9375 0.523438 -1.132812 0.484375 -1.375 C 0.441406 -1.613281 0.421875 -1.890625 0.421875 -2.203125 Z M 0.421875 -2.203125 "/></g></g></g><g fill="#1800ad" fill-opacity="1"><g transform="translate(82.067134, 7.783736)"><g><path d="M 0.234375 0 L 1.9375 -5.03125 L 3.03125 -5.03125 L 4.65625 0 L 3.640625 0 L 3.28125 -1.109375 L 1.625 -1.109375 L 1.265625 0 Z M 1.890625 -1.96875 L 3.046875 -1.96875 L 2.484375 -3.765625 Z M 1.890625 -1.96875 "/></g></g></g><g fill="#1800ad" fill-opacity="1"><g transform="translate(89.477115, 7.783736)"><g><path d="M 0.421875 -0.96875 L 0.421875 -5.03125 L 1.375 -5.03125 L 1.375 -1.25 C 1.375 -1.15625 1.382812 -1.082031 1.40625 -1.03125 C 1.425781 -0.976562 1.460938 -0.941406 1.515625 -0.921875 C 1.578125 -0.910156 1.625 -0.898438 1.65625 -0.890625 C 1.6875 -0.890625 1.738281 -0.890625 1.8125 -0.890625 L 3.53125 -0.890625 L 3.53125 0 L 1.46875 0 C 0.769531 0 0.421875 -0.320312 0.421875 -0.96875 Z M 0.421875 -0.96875 "/></g></g></g><g fill="#1800ad" fill-opacity="1"><g transform="translate(95.835397, 7.783736)"><g><path d="M 0.421875 0 L 0.421875 -5.03125 L 1.375 -5.03125 L 1.375 0 Z M 0.421875 0 "/></g></g></g><g fill="#1800ad" fill-opacity="1"><g transform="translate(100.172767, 7.783736)"><g><path d="M 0.21875 -4.140625 L 0.21875 -5.03125 L 3.9375 -5.03125 L 3.9375 -4.140625 L 2.53125 -4.140625 L 2.53125 0 L 1.578125 0 L 1.578125 -4.140625 Z M 0.21875 -4.140625 "/></g></g></g><g fill="#1800ad" fill-opacity="1"><g transform="translate(106.902231, 7.783736)"><g><path d="M 0.234375 -5.03125 L 1.28125 -5.03125 L 2.265625 -2.625 L 3.34375 -5.03125 L 4.390625 -5.03125 L 2.734375 -1.5625 L 2.734375 0 L 1.765625 0 L 1.765625 -1.5625 Z M 0.234375 -5.03125 "/></g></g></g><g fill="#1800ad" fill-opacity="1"><g transform="translate(114.064752, 7.783736)"><g/></g></g><g fill="#1800ad" fill-opacity="1"><g transform="translate(118.952029, 7.783736)"><g><path d="M 0.421875 0 L 0.421875 -5.03125 L 2.5625 -5.03125 C 3.71875 -5.03125 4.296875 -4.1875 4.296875 -2.5 C 4.296875 -2.125 4.257812 -1.785156 4.1875 -1.484375 C 4.125 -1.179688 4.023438 -0.914062 3.890625 -0.6875 C 3.753906 -0.46875 3.570312 -0.296875 3.34375 -0.171875 C 3.113281 -0.0546875 2.851562 0 2.5625 0 Z M 1.375 -0.859375 L 2.484375 -0.859375 C 3.054688 -0.859375 3.34375 -1.40625 3.34375 -2.5 C 3.34375 -2.769531 3.328125 -3 3.296875 -3.1875 C 3.273438 -3.382812 3.238281 -3.546875 3.1875 -3.671875 C 3.144531 -3.796875 3.085938 -3.894531 3.015625 -3.96875 C 2.941406 -4.050781 2.859375 -4.109375 2.765625 -4.140625 C 2.679688 -4.171875 2.585938 -4.1875 2.484375 -4.1875 L 1.375 -4.1875 Z M 1.375 -0.859375 "/></g></g></g><g fill="#1800ad" fill-opacity="1"><g transform="translate(126.155796, 7.783736)"><g><path d="M 0.40625 -0.984375 L 0.40625 -3.984375 C 0.40625 -4.148438 0.425781 -4.296875 0.46875 -4.421875 C 0.507812 -4.554688 0.566406 -4.660156 0.640625 -4.734375 C 0.710938 -4.804688 0.796875 -4.863281 0.890625 -4.90625 C 0.992188 -4.957031 1.09375 -4.988281 1.1875 -5 C 1.28125 -5.019531 1.378906 -5.03125 1.484375 -5.03125 C 2.671875 -5 3.410156 -4.960938 3.703125 -4.921875 L 3.703125 -4.125 L 1.71875 -4.125 C 1.632812 -4.125 1.566406 -4.113281 1.515625 -4.09375 C 1.460938 -4.070312 1.425781 -4.039062 1.40625 -4 C 1.382812 -3.957031 1.367188 -3.921875 1.359375 -3.890625 C 1.359375 -3.859375 1.359375 -3.804688 1.359375 -3.734375 L 1.359375 -2.953125 L 3.390625 -2.890625 L 3.390625 -2.09375 L 1.359375 -2.03125 L 1.359375 -1.25 C 1.359375 -1.15625 1.367188 -1.082031 1.390625 -1.03125 C 1.421875 -0.976562 1.457031 -0.941406 1.5 -0.921875 C 1.550781 -0.898438 1.59375 -0.890625 1.625 -0.890625 C 1.664062 -0.890625 1.71875 -0.890625 1.78125 -0.890625 L 3.703125 -0.890625 L 3.703125 -0.09375 C 3.585938 -0.0820312 3.351562 -0.0664062 3 -0.046875 C 2.644531 -0.0234375 2.3125 -0.0078125 2 0 L 1.5625 0.015625 C 1.457031 0.0234375 1.359375 0.0234375 1.265625 0.015625 C 1.171875 0.00390625 1.066406 -0.0195312 0.953125 -0.0625 C 0.847656 -0.101562 0.753906 -0.15625 0.671875 -0.21875 C 0.597656 -0.289062 0.535156 -0.390625 0.484375 -0.515625 C 0.429688 -0.648438 0.40625 -0.804688 0.40625 -0.984375 Z M 0.40625 -0.984375 "/></g></g></g><g fill="#1800ad" fill-opacity="1"><g transform="translate(132.706544, 7.783736)"><g><path d="M 0.421875 -0.96875 L 0.421875 -5.03125 L 1.375 -5.03125 L 1.375 -1.25 C 1.375 -1.15625 1.382812 -1.082031 1.40625 -1.03125 C 1.425781 -0.976562 1.460938 -0.941406 1.515625 -0.921875 C 1.578125 -0.910156 1.625 -0.898438 1.65625 -0.890625 C 1.6875 -0.890625 1.738281 -0.890625 1.8125 -0.890625 L 3.53125 -0.890625 L 3.53125 0 L 1.46875 0 C 0.769531 0 0.421875 -0.320312 0.421875 -0.96875 Z M 0.421875 -0.96875 "/></g></g></g><g fill="#1800ad" fill-opacity="1"><g transform="translate(139.064826, 7.783736)"><g><path d="M 0.421875 0 L 0.421875 -5.03125 L 1.375 -5.03125 L 1.375 0 Z M 0.421875 0 "/></g></g></g><g fill="#1800ad" fill-opacity="1"><g transform="translate(143.402195, 7.783736)"><g><path d="M 0.234375 -5.03125 L 1.265625 -5.03125 L 2.375 -1.265625 L 3.5625 -5.03125 L 4.578125 -5.03125 L 2.921875 0 L 1.8125 0 Z M 0.234375 -5.03125 "/></g></g></g><g fill="#1800ad" fill-opacity="1"><g transform="translate(150.76406, 7.783736)"><g><path d="M 0.40625 -0.984375 L 0.40625 -3.984375 C 0.40625 -4.148438 0.425781 -4.296875 0.46875 -4.421875 C 0.507812 -4.554688 0.566406 -4.660156 0.640625 -4.734375 C 0.710938 -4.804688 0.796875 -4.863281 0.890625 -4.90625 C 0.992188 -4.957031 1.09375 -4.988281 1.1875 -5 C 1.28125 -5.019531 1.378906 -5.03125 1.484375 -5.03125 C 2.671875 -5 3.410156 -4.960938 3.703125 -4.921875 L 3.703125 -4.125 L 1.71875 -4.125 C 1.632812 -4.125 1.566406 -4.113281 1.515625 -4.09375 C 1.460938 -4.070312 1.425781 -4.039062 1.40625 -4 C 1.382812 -3.957031 1.367188 -3.921875 1.359375 -3.890625 C 1.359375 -3.859375 1.359375 -3.804688 1.359375 -3.734375 L 1.359375 -2.953125 L 3.390625 -2.890625 L 3.390625 -2.09375 L 1.359375 -2.03125 L 1.359375 -1.25 C 1.359375 -1.15625 1.367188 -1.082031 1.390625 -1.03125 C 1.421875 -0.976562 1.457031 -0.941406 1.5 -0.921875 C 1.550781 -0.898438 1.59375 -0.890625 1.625 -0.890625 C 1.664062 -0.890625 1.71875 -0.890625 1.78125 -0.890625 L 3.703125 -0.890625 L 3.703125 -0.09375 C 3.585938 -0.0820312 3.351562 -0.0664062 3 -0.046875 C 2.644531 -0.0234375 2.3125 -0.0078125 2 0 L 1.5625 0.015625 C 1.457031 0.0234375 1.359375 0.0234375 1.265625 0.015625 C 1.171875 0.00390625 1.066406 -0.0195312 0.953125 -0.0625 C 0.847656 -0.101562 0.753906 -0.15625 0.671875 -0.21875 C 0.597656 -0.289062 0.535156 -0.390625 0.484375 -0.515625 C 0.429688 -0.648438 0.40625 -0.804688 0.40625 -0.984375 Z M 0.40625 -0.984375 "/></g></g></g><g fill="#1800ad" fill-opacity="1"><g transform="translate(157.314808, 7.783736)"><g><path d="M 0.34375 0 L 0.34375 -5.03125 L 2.546875 -5.03125 C 2.753906 -5.03125 2.9375 -5.003906 3.09375 -4.953125 C 3.257812 -4.898438 3.40625 -4.816406 3.53125 -4.703125 C 3.65625 -4.585938 3.75 -4.421875 3.8125 -4.203125 C 3.882812 -3.992188 3.921875 -3.75 3.921875 -3.46875 C 3.921875 -3.226562 3.898438 -3.019531 3.859375 -2.84375 C 3.816406 -2.664062 3.769531 -2.53125 3.71875 -2.4375 C 3.675781 -2.34375 3.609375 -2.257812 3.515625 -2.1875 C 3.429688 -2.113281 3.363281 -2.066406 3.3125 -2.046875 C 3.269531 -2.023438 3.207031 -2.003906 3.125 -1.984375 L 4.078125 0 L 2.984375 0 L 2.15625 -1.90625 L 1.3125 -2 L 1.3125 0 Z M 1.3125 -2.75 L 2.46875 -2.75 C 2.550781 -2.75 2.617188 -2.757812 2.671875 -2.78125 C 2.734375 -2.800781 2.785156 -2.832031 2.828125 -2.875 C 2.867188 -2.925781 2.898438 -3 2.921875 -3.09375 C 2.941406 -3.1875 2.953125 -3.3125 2.953125 -3.46875 C 2.953125 -3.738281 2.910156 -3.925781 2.828125 -4.03125 C 2.742188 -4.132812 2.625 -4.1875 2.46875 -4.1875 L 1.3125 -4.1875 Z M 1.3125 -2.75 "/></g></g></g><g fill="#1800ad" fill-opacity="1"><g transform="translate(164.140515, 7.783736)"><g><path d="M 0.421875 0 L 0.421875 -5.03125 L 1.375 -5.03125 L 1.375 0 Z M 0.421875 0 "/></g></g></g><g fill="#1800ad" fill-opacity="1"><g transform="translate(168.477892, 7.783736)"><g><path d="M 0.421875 0 L 0.421875 -5.03125 L 1.390625 -5.03125 L 3.390625 -1.78125 L 3.390625 -5.03125 L 4.359375 -5.03125 L 4.359375 0 L 3.390625 0 L 1.390625 -3.21875 L 1.390625 0 Z M 0.421875 0 "/></g></g></g><g fill="#1800ad" fill-opacity="1"><g transform="translate(175.791632, 7.783736)"><g><path d="M 0.28125 -2.546875 C 0.28125 -2.859375 0.289062 -3.132812 0.3125 -3.375 C 0.34375 -3.613281 0.394531 -3.84375 0.46875 -4.0625 C 0.539062 -4.289062 0.632812 -4.472656 0.75 -4.609375 C 0.875 -4.753906 1.035156 -4.867188 1.234375 -4.953125 C 1.429688 -5.046875 1.664062 -5.09375 1.9375 -5.09375 C 2.320312 -5.09375 2.648438 -5.078125 2.921875 -5.046875 C 3.191406 -5.015625 3.503906 -4.957031 3.859375 -4.875 L 3.859375 -4.125 C 3.859375 -4.125 3.820312 -4.125 3.75 -4.125 C 3.675781 -4.132812 3.582031 -4.144531 3.46875 -4.15625 C 3.351562 -4.175781 3.222656 -4.191406 3.078125 -4.203125 C 2.941406 -4.210938 2.789062 -4.21875 2.625 -4.21875 C 2.457031 -4.226562 2.300781 -4.234375 2.15625 -4.234375 C 2.03125 -4.234375 1.921875 -4.21875 1.828125 -4.1875 C 1.734375 -4.164062 1.648438 -4.125 1.578125 -4.0625 C 1.515625 -4.007812 1.460938 -3.9375 1.421875 -3.84375 C 1.378906 -3.757812 1.34375 -3.648438 1.3125 -3.515625 C 1.289062 -3.390625 1.273438 -3.25 1.265625 -3.09375 C 1.253906 -2.9375 1.25 -2.75 1.25 -2.53125 C 1.25 -1.863281 1.300781 -1.414062 1.40625 -1.1875 C 1.519531 -0.96875 1.753906 -0.859375 2.109375 -0.859375 C 2.191406 -0.859375 2.28125 -0.867188 2.375 -0.890625 C 2.46875 -0.910156 2.546875 -0.9375 2.609375 -0.96875 C 2.679688 -1 2.742188 -1.03125 2.796875 -1.0625 C 2.859375 -1.09375 2.90625 -1.117188 2.9375 -1.140625 C 2.96875 -1.171875 2.984375 -1.1875 2.984375 -1.1875 L 2.984375 -2.078125 L 2.28125 -2.078125 L 2.28125 -2.6875 C 2.550781 -2.800781 2.945312 -2.859375 3.46875 -2.859375 C 3.613281 -2.859375 3.769531 -2.851562 3.9375 -2.84375 L 3.9375 0 L 3.25 0 L 2.984375 -0.34375 C 2.941406 -0.289062 2.894531 -0.25 2.84375 -0.21875 C 2.800781 -0.1875 2.75 -0.15625 2.6875 -0.125 C 2.625 -0.09375 2.554688 -0.0664062 2.484375 -0.046875 C 2.410156 -0.0234375 2.328125 -0.0078125 2.234375 0 C 2.140625 0.0195312 2.035156 0.03125 1.921875 0.03125 C 1.648438 0.0390625 1.410156 0.00390625 1.203125 -0.078125 C 1.003906 -0.171875 0.847656 -0.289062 0.734375 -0.4375 C 0.617188 -0.582031 0.523438 -0.769531 0.453125 -1 C 0.378906 -1.238281 0.332031 -1.472656 0.3125 -1.703125 C 0.289062 -1.941406 0.28125 -2.222656 0.28125 -2.546875 Z M 0.28125 -2.546875 "/></g></g></g><g fill="#1800ad" fill-opacity="1"><g transform="translate(182.665446, 7.783736)"><g/></g></g><g fill="#1800ad" fill-opacity="1"><g transform="translate(187.55274, 7.783736)"><g><path d="M 0.34375 0 L 0.34375 -5.03125 L 2.515625 -5.03125 C 2.660156 -5.03125 2.789062 -5.019531 2.90625 -5 C 3.019531 -4.976562 3.140625 -4.9375 3.265625 -4.875 C 3.398438 -4.8125 3.507812 -4.722656 3.59375 -4.609375 C 3.6875 -4.503906 3.757812 -4.351562 3.8125 -4.15625 C 3.875 -3.96875 3.90625 -3.742188 3.90625 -3.484375 C 3.90625 -3.296875 3.894531 -3.125 3.875 -2.96875 C 3.851562 -2.8125 3.820312 -2.675781 3.78125 -2.5625 C 3.738281 -2.457031 3.6875 -2.363281 3.625 -2.28125 C 3.5625 -2.195312 3.492188 -2.128906 3.421875 -2.078125 C 3.359375 -2.035156 3.285156 -1.992188 3.203125 -1.953125 C 3.128906 -1.921875 3.050781 -1.898438 2.96875 -1.890625 C 2.894531 -1.878906 2.816406 -1.867188 2.734375 -1.859375 C 2.660156 -1.847656 2.585938 -1.847656 2.515625 -1.859375 C 2.378906 -1.867188 2.148438 -1.890625 1.828125 -1.921875 C 1.503906 -1.960938 1.332031 -1.988281 1.3125 -2 L 1.3125 0 Z M 1.3125 -2.703125 L 2.4375 -2.703125 C 2.601562 -2.703125 2.726562 -2.753906 2.8125 -2.859375 C 2.894531 -2.972656 2.9375 -3.175781 2.9375 -3.46875 C 2.9375 -3.945312 2.769531 -4.1875 2.4375 -4.1875 L 1.3125 -4.1875 Z M 1.3125 -2.703125 "/></g></g></g><g fill="#1800ad" fill-opacity="1"><g transform="translate(194.344061, 7.783736)"><g><path d="M 0.40625 -0.984375 L 0.40625 -3.984375 C 0.40625 -4.148438 0.425781 -4.296875 0.46875 -4.421875 C 0.507812 -4.554688 0.566406 -4.660156 0.640625 -4.734375 C 0.710938 -4.804688 0.796875 -4.863281 0.890625 -4.90625 C 0.992188 -4.957031 1.09375 -4.988281 1.1875 -5 C 1.28125 -5.019531 1.378906 -5.03125 1.484375 -5.03125 C 2.671875 -5 3.410156 -4.960938 3.703125 -4.921875 L 3.703125 -4.125 L 1.71875 -4.125 C 1.632812 -4.125 1.566406 -4.113281 1.515625 -4.09375 C 1.460938 -4.070312 1.425781 -4.039062 1.40625 -4 C 1.382812 -3.957031 1.367188 -3.921875 1.359375 -3.890625 C 1.359375 -3.859375 1.359375 -3.804688 1.359375 -3.734375 L 1.359375 -2.953125 L 3.390625 -2.890625 L 3.390625 -2.09375 L 1.359375 -2.03125 L 1.359375 -1.25 C 1.359375 -1.15625 1.367188 -1.082031 1.390625 -1.03125 C 1.421875 -0.976562 1.457031 -0.941406 1.5 -0.921875 C 1.550781 -0.898438 1.59375 -0.890625 1.625 -0.890625 C 1.664062 -0.890625 1.71875 -0.890625 1.78125 -0.890625 L 3.703125 -0.890625 L 3.703125 -0.09375 C 3.585938 -0.0820312 3.351562 -0.0664062 3 -0.046875 C 2.644531 -0.0234375 2.3125 -0.0078125 2 0 L 1.5625 0.015625 C 1.457031 0.0234375 1.359375 0.0234375 1.265625 0.015625 C 1.171875 0.00390625 1.066406 -0.0195312 0.953125 -0.0625 C 0.847656 -0.101562 0.753906 -0.15625 0.671875 -0.21875 C 0.597656 -0.289062 0.535156 -0.390625 0.484375 -0.515625 C 0.429688 -0.648438 0.40625 -0.804688 0.40625 -0.984375 Z M 0.40625 -0.984375 "/></g></g></g><g fill="#1800ad" fill-opacity="1"><g transform="translate(200.89481, 7.783736)"><g><path d="M 0.34375 0 L 0.34375 -5.03125 L 2.546875 -5.03125 C 2.753906 -5.03125 2.9375 -5.003906 3.09375 -4.953125 C 3.257812 -4.898438 3.40625 -4.816406 3.53125 -4.703125 C 3.65625 -4.585938 3.75 -4.421875 3.8125 -4.203125 C 3.882812 -3.992188 3.921875 -3.75 3.921875 -3.46875 C 3.921875 -3.226562 3.898438 -3.019531 3.859375 -2.84375 C 3.816406 -2.664062 3.769531 -2.53125 3.71875 -2.4375 C 3.675781 -2.34375 3.609375 -2.257812 3.515625 -2.1875 C 3.429688 -2.113281 3.363281 -2.066406 3.3125 -2.046875 C 3.269531 -2.023438 3.207031 -2.003906 3.125 -1.984375 L 4.078125 0 L 2.984375 0 L 2.15625 -1.90625 L 1.3125 -2 L 1.3125 0 Z M 1.3125 -2.75 L 2.46875 -2.75 C 2.550781 -2.75 2.617188 -2.757812 2.671875 -2.78125 C 2.734375 -2.800781 2.785156 -2.832031 2.828125 -2.875 C 2.867188 -2.925781 2.898438 -3 2.921875 -3.09375 C 2.941406 -3.1875 2.953125 -3.3125 2.953125 -3.46875 C 2.953125 -3.738281 2.910156 -3.925781 2.828125 -4.03125 C 2.742188 -4.132812 2.625 -4.1875 2.46875 -4.1875 L 1.3125 -4.1875 Z M 1.3125 -2.75 "/></g></g></g><g fill="#1800ad" fill-opacity="1"><g transform="translate(207.720516, 7.783736)"><g><path d="M 0.40625 0 L 0.40625 -3.96875 C 0.40625 -4.164062 0.4375 -4.335938 0.5 -4.484375 C 0.5625 -4.628906 0.644531 -4.738281 0.75 -4.8125 C 0.863281 -4.894531 0.976562 -4.953125 1.09375 -4.984375 C 1.21875 -5.023438 1.347656 -5.039062 1.484375 -5.03125 C 2.671875 -5 3.410156 -4.960938 3.703125 -4.921875 L 3.703125 -4.125 L 1.71875 -4.125 C 1.632812 -4.125 1.566406 -4.113281 1.515625 -4.09375 C 1.460938 -4.070312 1.425781 -4.039062 1.40625 -4 C 1.382812 -3.957031 1.367188 -3.921875 1.359375 -3.890625 C 1.359375 -3.859375 1.359375 -3.804688 1.359375 -3.734375 L 1.359375 -2.953125 L 3.390625 -2.890625 L 3.390625 -2.09375 L 1.359375 -2.03125 L 1.359375 0 Z M 0.40625 0 "/></g></g></g><g fill="#1800ad" fill-opacity="1"><g transform="translate(214.271264, 7.783736)"><g><path d="M 0.40625 -0.984375 L 0.40625 -3.984375 C 0.40625 -4.148438 0.425781 -4.296875 0.46875 -4.421875 C 0.507812 -4.554688 0.566406 -4.660156 0.640625 -4.734375 C 0.710938 -4.804688 0.796875 -4.863281 0.890625 -4.90625 C 0.992188 -4.957031 1.09375 -4.988281 1.1875 -5 C 1.28125 -5.019531 1.378906 -5.03125 1.484375 -5.03125 C 2.671875 -5 3.410156 -4.960938 3.703125 -4.921875 L 3.703125 -4.125 L 1.71875 -4.125 C 1.632812 -4.125 1.566406 -4.113281 1.515625 -4.09375 C 1.460938 -4.070312 1.425781 -4.039062 1.40625 -4 C 1.382812 -3.957031 1.367188 -3.921875 1.359375 -3.890625 C 1.359375 -3.859375 1.359375 -3.804688 1.359375 -3.734375 L 1.359375 -2.953125 L 3.390625 -2.890625 L 3.390625 -2.09375 L 1.359375 -2.03125 L 1.359375 -1.25 C 1.359375 -1.15625 1.367188 -1.082031 1.390625 -1.03125 C 1.421875 -0.976562 1.457031 -0.941406 1.5 -0.921875 C 1.550781 -0.898438 1.59375 -0.890625 1.625 -0.890625 C 1.664062 -0.890625 1.71875 -0.890625 1.78125 -0.890625 L 3.703125 -0.890625 L 3.703125 -0.09375 C 3.585938 -0.0820312 3.351562 -0.0664062 3 -0.046875 C 2.644531 -0.0234375 2.3125 -0.0078125 2 0 L 1.5625 0.015625 C 1.457031 0.0234375 1.359375 0.0234375 1.265625 0.015625 C 1.171875 0.00390625 1.066406 -0.0195312 0.953125 -0.0625 C 0.847656 -0.101562 0.753906 -0.15625 0.671875 -0.21875 C 0.597656 -0.289062 0.535156 -0.390625 0.484375 -0.515625 C 0.429688 -0.648438 0.40625 -0.804688 0.40625 -0.984375 Z M 0.40625 -0.984375 "/></g></g></g><g fill="#1800ad" fill-opacity="1"><g transform="translate(220.822012, 7.783736)"><g><path d="M 0.28125 -2.53125 C 0.28125 -2.863281 0.296875 -3.15625 0.328125 -3.40625 C 0.359375 -3.664062 0.410156 -3.90625 0.484375 -4.125 C 0.566406 -4.34375 0.671875 -4.519531 0.796875 -4.65625 C 0.929688 -4.789062 1.097656 -4.894531 1.296875 -4.96875 C 1.492188 -5.050781 1.726562 -5.09375 2 -5.09375 C 2.65625 -5.09375 3.238281 -5.015625 3.75 -4.859375 L 3.75 -4.109375 C 3.75 -4.109375 3.738281 -4.109375 3.71875 -4.109375 C 3.695312 -4.109375 3.664062 -4.109375 3.625 -4.109375 C 3.59375 -4.117188 3.550781 -4.125 3.5 -4.125 C 3.457031 -4.132812 3.398438 -4.140625 3.328125 -4.140625 C 3.265625 -4.148438 3.195312 -4.15625 3.125 -4.15625 C 3.0625 -4.164062 2.992188 -4.171875 2.921875 -4.171875 C 2.847656 -4.179688 2.769531 -4.1875 2.6875 -4.1875 C 2.613281 -4.1875 2.535156 -4.1875 2.453125 -4.1875 C 2.367188 -4.195312 2.296875 -4.203125 2.234375 -4.203125 C 2.097656 -4.203125 1.988281 -4.195312 1.90625 -4.1875 C 1.820312 -4.175781 1.738281 -4.148438 1.65625 -4.109375 C 1.582031 -4.066406 1.519531 -4.003906 1.46875 -3.921875 C 1.425781 -3.847656 1.382812 -3.75 1.34375 -3.625 C 1.3125 -3.5 1.285156 -3.347656 1.265625 -3.171875 C 1.253906 -2.992188 1.25 -2.773438 1.25 -2.515625 C 1.25 -1.921875 1.316406 -1.492188 1.453125 -1.234375 C 1.585938 -0.972656 1.847656 -0.84375 2.234375 -0.84375 C 2.441406 -0.84375 2.671875 -0.847656 2.921875 -0.859375 C 3.179688 -0.867188 3.382812 -0.878906 3.53125 -0.890625 L 3.75 -0.90625 L 3.75 -0.15625 C 3.300781 -0.0078125 2.71875 0.0546875 2 0.046875 C 1.6875 0.0351562 1.414062 -0.0234375 1.1875 -0.140625 C 0.96875 -0.253906 0.789062 -0.425781 0.65625 -0.65625 C 0.53125 -0.882812 0.4375 -1.148438 0.375 -1.453125 C 0.3125 -1.753906 0.28125 -2.113281 0.28125 -2.53125 Z M 0.28125 -2.53125 "/></g></g></g><g fill="#1800ad" fill-opacity="1"><g transform="translate(227.400258, 7.783736)"><g><path d="M 0.21875 -4.140625 L 0.21875 -5.03125 L 3.9375 -5.03125 L 3.9375 -4.140625 L 2.53125 -4.140625 L 2.53125 0 L 1.578125 0 L 1.578125 -4.140625 Z M 0.21875 -4.140625 "/></g></g></g><g fill="#1800ad" fill-opacity="1"><g transform="translate(234.129731, 7.783736)"><g><path d="M 0.421875 0 L 0.421875 -5.03125 L 1.375 -5.03125 L 1.375 0 Z M 0.421875 0 "/></g></g></g><g fill="#1800ad" fill-opacity="1"><g transform="translate(238.467091, 7.783736)"><g><path d="M 0.34375 -2.484375 C 0.34375 -2.710938 0.347656 -2.925781 0.359375 -3.125 C 0.378906 -3.320312 0.40625 -3.5 0.4375 -3.65625 C 0.476562 -3.8125 0.519531 -3.953125 0.5625 -4.078125 C 0.601562 -4.203125 0.65625 -4.3125 0.71875 -4.40625 C 0.78125 -4.5 0.84375 -4.582031 0.90625 -4.65625 C 0.976562 -4.726562 1.0625 -4.785156 1.15625 -4.828125 C 1.25 -4.878906 1.335938 -4.921875 1.421875 -4.953125 C 1.503906 -4.984375 1.597656 -5.003906 1.703125 -5.015625 C 1.816406 -5.035156 1.921875 -5.046875 2.015625 -5.046875 C 2.117188 -5.054688 2.234375 -5.0625 2.359375 -5.0625 C 2.523438 -5.0625 2.671875 -5.054688 2.796875 -5.046875 C 2.921875 -5.046875 3.046875 -5.03125 3.171875 -5 C 3.304688 -4.96875 3.421875 -4.921875 3.515625 -4.859375 C 3.617188 -4.804688 3.71875 -4.738281 3.8125 -4.65625 C 3.914062 -4.570312 4 -4.460938 4.0625 -4.328125 C 4.125 -4.203125 4.179688 -4.050781 4.234375 -3.875 C 4.285156 -3.707031 4.320312 -3.503906 4.34375 -3.265625 C 4.375 -3.035156 4.390625 -2.773438 4.390625 -2.484375 C 4.390625 -2.171875 4.367188 -1.890625 4.328125 -1.640625 C 4.296875 -1.398438 4.253906 -1.191406 4.203125 -1.015625 C 4.148438 -0.835938 4.078125 -0.6875 3.984375 -0.5625 C 3.890625 -0.4375 3.789062 -0.332031 3.6875 -0.25 C 3.582031 -0.175781 3.457031 -0.117188 3.3125 -0.078125 C 3.164062 -0.0351562 3.019531 -0.0078125 2.875 0 C 2.726562 0.0195312 2.554688 0.03125 2.359375 0.03125 C 2.191406 0.03125 2.046875 0.0234375 1.921875 0.015625 C 1.796875 0.00390625 1.664062 -0.0078125 1.53125 -0.03125 C 1.394531 -0.0625 1.273438 -0.101562 1.171875 -0.15625 C 1.078125 -0.207031 0.984375 -0.273438 0.890625 -0.359375 C 0.796875 -0.453125 0.71875 -0.5625 0.65625 -0.6875 C 0.59375 -0.8125 0.535156 -0.957031 0.484375 -1.125 C 0.429688 -1.289062 0.394531 -1.488281 0.375 -1.71875 C 0.351562 -1.945312 0.34375 -2.203125 0.34375 -2.484375 Z M 1.3125 -2.484375 C 1.3125 -2.203125 1.316406 -1.96875 1.328125 -1.78125 C 1.347656 -1.601562 1.378906 -1.445312 1.421875 -1.3125 C 1.460938 -1.1875 1.523438 -1.09375 1.609375 -1.03125 C 1.703125 -0.96875 1.804688 -0.921875 1.921875 -0.890625 C 2.035156 -0.867188 2.179688 -0.859375 2.359375 -0.859375 C 2.648438 -0.859375 2.863281 -0.898438 3 -0.984375 C 3.144531 -1.066406 3.25 -1.222656 3.3125 -1.453125 C 3.382812 -1.679688 3.421875 -2.023438 3.421875 -2.484375 C 3.421875 -2.742188 3.410156 -2.96875 3.390625 -3.15625 C 3.378906 -3.34375 3.351562 -3.5 3.3125 -3.625 C 3.269531 -3.75 3.222656 -3.847656 3.171875 -3.921875 C 3.128906 -3.992188 3.0625 -4.046875 2.96875 -4.078125 C 2.882812 -4.117188 2.796875 -4.144531 2.703125 -4.15625 C 2.617188 -4.175781 2.503906 -4.1875 2.359375 -4.1875 C 2.242188 -4.1875 2.144531 -4.179688 2.0625 -4.171875 C 1.988281 -4.160156 1.910156 -4.144531 1.828125 -4.125 C 1.742188 -4.101562 1.675781 -4.066406 1.625 -4.015625 C 1.582031 -3.972656 1.535156 -3.910156 1.484375 -3.828125 C 1.441406 -3.742188 1.40625 -3.640625 1.375 -3.515625 C 1.351562 -3.390625 1.335938 -3.242188 1.328125 -3.078125 C 1.316406 -2.910156 1.3125 -2.710938 1.3125 -2.484375 Z M 1.3125 -2.484375 "/></g></g></g><g fill="#1800ad" fill-opacity="1"><g transform="translate(245.732724, 7.783736)"><g><path d="M 0.421875 0 L 0.421875 -5.03125 L 1.390625 -5.03125 L 3.390625 -1.78125 L 3.390625 -5.03125 L 4.359375 -5.03125 L 4.359375 0 L 3.390625 0 L 1.390625 -3.21875 L 1.390625 0 Z M 0.421875 0 "/></g></g></g><g fill="#1800ad" fill-opacity="1"><g transform="translate(253.049595, 7.783736)"><g/></g></g></g></g></svg>